<?xml version="1.0" standalone="no"?>
<!DOCTYPE svg PUBLIC "-//W3C//DTD SVG 20010904//EN"
 "http://www.w3.org/TR/2001/REC-SVG-20010904/DTD/svg10.dtd">
<svg version="1.0" xmlns="http://www.w3.org/2000/svg"
 width="297.000000pt" height="300.000000pt" viewBox="0 0 297.000000 300.000000"
 preserveAspectRatio="xMidYMid meet">

<g transform="translate(0.000000,300.000000) scale(0.100000,-0.100000)"
fill="#000000" stroke="none">
<path d="M1317 2990 c-240 -28 -489 -124 -691 -268 -103 -73 -265 -235 -338
-338 -330 -464 -377 -1055 -125 -1559 212 -425 589 -709 1062 -802 124 -24
386 -24 510 1 291 57 539 185 748 385 244 234 392 512 448 842 27 158 22 408
-10 561 -63 292 -197 535 -416 753 -169 170 -339 278 -557 354 -180 63 -444
92 -631 71z m317 -45 c162 -12 397 -90 556 -184 277 -165 502 -428 619 -723
123 -311 132 -686 26 -1005 -73 -218 -185 -395 -359 -568 -220 -220 -466 -349
-761 -400 -129 -23 -347 -23 -472 -1 -602 105 -1074 583 -1179 1191 -23 134
-23 357 1 490 114 658 652 1155 1305 1205 52 4 115 6 140 4 25 -2 81 -6 124
-9z"/>
<path d="M1325 2870 c-586 -67 -1059 -507 -1187 -1103 -31 -145 -31 -399 0
-544 92 -427 358 -776 740 -967 304 -153 670 -182 993 -80 498 157 862 586
944 1109 22 141 16 378 -14 505 -127 548 -534 951 -1071 1060 -115 23 -296 32
-405 20z m155 -140 c0 -14 -7 -20 -23 -20 -22 0 -23 -3 -19 -60 4 -59 4 -60
-22 -60 -25 0 -26 2 -26 55 0 51 -2 55 -24 55 -15 0 -26 7 -29 19 -4 17 1 21
37 24 100 9 106 8 106 -13z m90 -44 c0 -74 -9 -98 -33 -94 -19 3 -21 9 -18 63
3 81 8 94 31 88 17 -4 20 -14 20 -57z m-253 -25 c40 -67 40 -69 20 -75 -12 -3
-26 -1 -31 4 -16 16 -50 11 -69 -10 -37 -44 -44 -23 -26 76 18 98 49 100 106
5z m423 49 c39 -39 18 -121 -35 -134 -37 -9 -93 17 -101 48 -8 32 1 70 22 90
23 23 89 21 114 -4z m-585 -80 c10 -30 20 -60 22 -67 10 -25 -38 -25 -72 1
-43 33 -46 33 -33 -5 10 -30 1 -48 -24 -49 -7 0 -48 116 -48 136 0 26 39 21
76 -9 l37 -31 -6 26 c-4 14 -10 33 -13 41 -3 10 1 17 13 19 24 6 28 2 48 -62z
m704 57 c6 -8 14 -28 17 -45 8 -40 20 -41 29 -2 6 26 10 30 28 24 12 -3 23 -7
25 -9 1 -1 -10 -34 -24 -73 -24 -64 -28 -70 -48 -63 -12 5 -25 23 -31 44 -14
49 -22 54 -30 18 -4 -21 -13 -31 -25 -31 -29 0 -32 15 -12 67 10 26 22 56 25
66 8 20 30 22 46 4z m-899 -81 c6 -8 10 -25 8 -38 -2 -16 5 -28 24 -40 16 -10
28 -22 28 -27 0 -19 -41 -23 -65 -7 -35 23 -48 21 -35 -5 14 -25 6 -49 -15
-49 -13 0 -75 105 -75 128 0 10 86 51 106 52 6 0 17 -7 24 -14z m1126 -40 c-3
-17 -8 -53 -11 -79 -5 -38 -10 -47 -22 -43 -8 3 -17 6 -19 6 -2 0 -4 7 -4 15
0 18 -36 38 -58 31 -9 -3 -24 -1 -32 4 -12 8 -5 20 42 65 53 52 58 54 82 43
22 -9 26 -16 22 -42z m94 -86 c-36 -46 -37 -53 -5 -77 18 -13 22 -22 15 -33
-10 -16 -32 -7 -83 34 l-27 22 46 62 c44 60 47 62 65 46 18 -16 18 -18 -11
-54z m-1408 12 c-40 -33 -31 -50 10 -20 25 17 32 18 39 7 6 -10 1 -19 -14 -31
-12 -10 -25 -18 -29 -18 -4 0 -5 -7 -2 -15 5 -13 11 -12 40 6 31 19 54 19 54
0 0 -8 -87 -71 -98 -71 -5 0 -27 27 -50 60 l-42 59 52 36 c36 24 55 32 63 24
7 -7 0 -19 -23 -37z m-106 -67 c4 -8 1 -22 -6 -30 -10 -12 -6 -23 23 -59 27
-32 33 -46 24 -55 -17 -17 -24 -14 -63 29 -35 39 -38 40 -56 24 -14 -14 -21
-15 -30 -6 -9 9 -1 24 37 62 53 54 62 58 71 35z m1774 -94 c8 -16 4 -24 -30
-51 -22 -17 -40 -38 -40 -46 0 -29 30 -26 71 7 40 32 42 32 56 13 13 -17 11
-21 -14 -42 -51 -42 -80 -53 -106 -41 -24 11 -57 57 -57 80 0 13 89 99 102 99
4 0 12 -9 18 -19z m-1029 -1 c10 -6 26 -24 34 -40 56 -108 -62 -214 -146 -131
-24 24 -29 38 -29 76 0 38 5 52 29 76 31 31 75 38 112 19z m401 -100 l88 -98
-240 -236 -240 -236 -206 0 c-113 0 -204 4 -202 8 4 11 701 661 708 661 3 -1
44 -45 92 -99z m-1229 30 c25 -19 46 -40 47 -46 0 -23 -30 -37 -70 -31 -47 6
-49 2 -15 -25 20 -16 23 -23 14 -39 -10 -19 -10 -19 -37 0 -15 11 -43 33 -62
49 -30 26 -33 32 -21 46 9 10 29 16 58 16 l44 0 -28 24 c-23 20 -25 26 -14 40
15 17 16 17 84 -34z m1972 -99 c3 -12 -3 -38 -15 -62 l-22 -42 36 22 35 22 11
-21 c14 -26 19 -20 -59 -60 -51 -25 -66 -29 -72 -18 -13 20 -11 34 13 74 12
20 17 35 12 33 -5 -3 -22 -11 -37 -19 -25 -12 -30 -12 -38 1 -15 23 -11 27 49
58 68 36 79 37 87 12z m-1300 -76 c30 -46 56 -88 57 -93 2 -5 -76 -81 -172
-170 l-175 -162 -145 0 -145 0 260 255 c143 139 261 254 263 254 1 1 27 -37
57 -84z m-789 24 c64 -36 66 -39 49 -62 -12 -16 -17 -15 -74 19 -57 34 -71 51
-54 67 11 12 24 8 79 -24z m1431 -296 l-152 -153 -137 0 c-77 0 -138 4 -138 9
0 5 100 107 223 226 l222 216 67 -73 67 -73 -152 -152z m743 177 c9 -16 7 -22
-7 -27 -10 -3 -42 -17 -70 -29 -53 -23 -53 -23 -64 -3 -13 25 -15 24 57 54 72
30 71 30 84 5z m-2233 -39 c38 -24 48 -51 33 -95 -14 -45 -32 -58 -76 -58
-109 0 -113 166 -4 171 8 1 29 -8 47 -18z m1777 -140 c64 -71 116 -132 116
-135 0 -3 -113 -6 -252 -6 l-252 0 130 134 c71 73 132 134 136 135 4 0 59 -57
122 -128z m486 96 c0 -15 -14 -31 -43 -49 l-42 -28 56 0 c50 0 57 -3 62 -22 4
-12 5 -24 2 -26 -2 -2 -38 0 -81 5 -66 7 -78 11 -85 30 -7 19 1 29 54 72 34
27 65 47 70 44 4 -2 7 -14 7 -26z m-2317 -148 c81 -37 36 -170 -52 -155 -48 8
-71 32 -71 76 0 73 57 109 123 79z m2367 -38 c0 -10 3 -39 6 -65 6 -37 4 -46
-9 -46 -17 0 -27 20 -27 56 0 13 -4 24 -10 24 -5 0 -10 -18 -10 -40 0 -50 -27
-57 -32 -8 -5 48 -28 48 -28 -1 0 -35 -13 -61 -26 -49 -2 3 -8 32 -12 66 l-9
62 31 5 c118 19 126 18 126 -4z m-2468 -157 c-3 -24 19 -34 81 -34 33 0 37 -3
37 -25 0 -24 -3 -25 -60 -25 -57 0 -60 -1 -60 -25 0 -18 -5 -25 -20 -25 -18 0
-20 7 -20 73 0 41 3 77 7 81 14 14 38 0 35 -20z m2478 -52 c0 -32 -5 -63 -12
-70 -16 -16 -43 -15 -58 3 -11 13 -15 12 -37 -5 -34 -26 -43 -25 -43 4 0 17
10 31 30 43 17 9 30 21 30 25 0 4 -13 8 -30 8 -25 0 -30 4 -30 25 0 24 2 25
75 25 l75 0 0 -58z m-754 13 c71 -30 86 -152 25 -207 -26 -23 -41 -28 -84 -28
-59 0 -89 16 -112 60 -44 85 15 189 108 190 15 0 43 -7 63 -15z m280 0 c71
-30 86 -152 25 -207 -26 -23 -41 -28 -84 -28 -62 0 -93 18 -113 66 -50 119 52
219 172 169z m-1431 -35 c7 -19 26 -72 43 -117 l31 -83 -41 0 c-31 0 -41 4
-45 20 -4 16 -14 20 -49 20 -37 0 -44 -3 -44 -20 0 -17 -7 -20 -41 -20 -29 0
-40 4 -37 13 3 6 22 61 44 120 l39 108 44 -3 c40 -3 45 -6 56 -38z m175 -50
l0 -90 55 0 c54 0 55 0 55 -30 l0 -30 -95 0 -95 0 0 120 0 120 40 0 40 0 0
-90z m339 -20 c22 -61 41 -115 41 -120 0 -6 -16 -10 -36 -10 -27 0 -37 5 -41
20 -4 16 -14 20 -48 20 -34 0 -44 -4 -48 -20 -4 -15 -14 -20 -41 -20 -20 0
-36 3 -36 6 0 4 19 58 41 120 l42 114 42 0 43 0 41 -110z m439 83 c-3 -24 -8
-28 -40 -31 l-38 -3 0 -90 0 -89 -35 0 -35 0 0 90 0 90 -40 0 c-38 0 -40 2
-40 30 l0 30 116 0 115 0 -3 -27z m-1454 -124 c8 -56 5 -64 -19 -56 -20 8 -22
107 -1 107 9 0 16 -18 20 -51z m1216 1 c0 -18 -7 -20 -65 -20 -58 0 -65 2 -65
20 0 18 7 20 65 20 58 0 65 -2 65 -20z m1090 1 c0 -10 -7 -21 -15 -25 -15 -5
-22 -46 -7 -46 4 0 16 17 27 37 34 64 85 53 85 -18 0 -35 -20 -69 -41 -69 -5
0 -9 11 -9 25 0 14 5 25 10 25 6 0 10 7 10 15 0 8 -4 15 -10 15 -5 0 -10 -7
-10 -15 0 -18 -43 -65 -60 -65 -5 0 -19 9 -31 21 -34 34 -11 119 32 119 12 0
19 -7 19 -19z m-2237 -91 c3 -10 -1 -24 -8 -30 -16 -13 -8 -47 17 -72 10 -10
18 -26 18 -36 0 -11 9 -45 20 -77 11 -32 20 -59 20 -60 0 -4 -150 -48 -154
-44 -2 2 -6 13 -8 23 -2 15 8 23 47 36 52 18 57 28 41 78 -6 16 -3 22 8 22 9
0 16 4 16 8 0 5 -35 14 -77 20 -42 7 -81 18 -85 25 -18 29 -6 47 60 86 37 23
70 41 73 41 4 0 9 -9 12 -20z m2256 -65 c48 -12 56 -21 41 -45 -8 -13 -17 -13
-76 3 -37 9 -70 19 -72 21 -2 3 -1 14 3 25 5 17 12 20 33 14 15 -3 47 -11 71
-18z m-1571 -134 c1 -28 14 -81 28 -118 14 -37 26 -74 27 -82 2 -13 -141 -81
-170 -81 -32 0 -174 174 -227 278 l-26 52 183 0 183 0 2 -49z m392 -28 c0
-120 0 -119 -83 -127 -40 -3 -97 -13 -127 -21 -51 -14 -56 -13 -68 2 -20 27
-52 141 -52 184 l0 39 165 0 165 0 0 -77z m375 68 c9 -15 -21 -144 -44 -190
-12 -23 -22 -41 -24 -41 -1 0 -24 7 -51 15 -26 8 -83 18 -126 21 l-78 7 -6 51
c-3 28 -6 72 -6 99 l0 47 164 0 c93 0 167 -4 171 -9z m425 4 c0 -12 -45 -93
-83 -149 -21 -32 -67 -87 -101 -123 l-61 -65 -90 37 c-50 21 -91 38 -93 40 -1
1 9 28 23 60 15 32 31 91 38 132 l12 73 177 0 c98 0 178 -2 178 -5z m399 -12
c-1 -39 -36 -118 -53 -121 -14 -3 -17 2 -14 24 3 25 -2 29 -46 44 -53 17 -61
26 -47 49 9 14 42 9 106 -15 7 -3 15 4 18 15 6 25 37 28 36 4z m-2193 -175
c-6 -26 10 -58 29 -58 13 0 41 -37 33 -45 -2 -2 -39 -8 -83 -13 -69 -8 -82 -8
-92 6 -21 26 -16 38 44 102 47 52 58 59 66 45 5 -9 6 -26 3 -37z m2085 17 c27
4 49 4 49 0 0 -21 -24 -45 -45 -45 -28 0 -29 -3 -14 -31 10 -20 4 -59 -10 -59
-5 0 -19 20 -32 45 -14 26 -35 49 -51 56 -24 10 -25 14 -16 34 10 23 12 23 40
9 22 -11 44 -14 79 -9z m-1101 -127 c0 -29 -3 -97 -7 -150 l-6 -98 -37 0 -38
0 -71 127 c-39 69 -71 130 -71 134 0 12 118 37 178 38 l52 1 0 -52z m221 36
c38 -8 69 -19 69 -24 0 -4 -32 -65 -71 -134 l-71 -126 -37 0 -38 0 -6 107 c-4
58 -7 126 -7 150 l0 43 46 0 c25 0 76 -7 115 -16z m-453 -141 c32 -54 63 -104
67 -112 22 -39 -145 30 -233 97 -28 20 -51 41 -53 46 -4 8 123 64 148 65 6 1
38 -43 71 -96z m674 69 c36 -15 68 -30 70 -34 10 -23 -187 -140 -262 -154
l-35 -7 16 24 c8 13 39 63 68 112 29 48 58 87 64 86 7 0 42 -12 79 -27z
m-1145 -222 l28 0 -23 -18 c-15 -12 -21 -24 -16 -35 7 -18 -11 -24 -21 -7 -4
7 -12 7 -25 0 -26 -14 -33 -12 -26 6 4 10 -1 25 -10 35 -16 18 -16 19 8 19 18
0 28 7 32 23 l7 22 9 -22 c7 -16 18 -23 37 -23z m1492 -10 c24 -1 25 -2 8 -15
-13 -9 -17 -20 -12 -34 7 -23 -4 -28 -23 -9 -9 9 -17 7 -33 -8 l-22 -19 6 26
c5 19 2 29 -8 33 -22 8 -18 26 4 26 12 0 23 9 27 23 l7 22 10 -22 c7 -15 19
-23 36 -23z m-1009 -239 c0 -93 -5 -111 -33 -111 -19 0 -19 4 -14 65 7 69 6
71 -23 55 -35 -19 -34 10 1 40 58 50 69 42 69 -49z m167 53 c23 -23 25 -31 21
-81 -4 -43 -10 -61 -28 -75 -30 -24 -65 -23 -92 5 l-23 22 24 3 c13 2 27 -2
31 -9 11 -16 36 -5 42 18 4 16 1 18 -22 15 -58 -8 -92 66 -50 108 27 27 66 25
97 -6z m163 0 c23 -23 20 -126 -4 -153 -24 -26 -83 -25 -100 1 -15 24 0 34 28
19 26 -15 46 -8 46 15 0 9 -10 14 -27 14 -62 0 -85 71 -36 110 29 23 66 21 93
-6z m162 -1 c10 -9 18 -20 18 -25 0 -12 -34 -10 -47 3 -15 15 -43 4 -43 -16 0
-10 9 -15 27 -15 35 0 63 -27 63 -59 0 -51 -44 -80 -90 -61 -51 21 -63 108
-25 167 19 28 69 31 97 6z"/>
<path d="M1250 2650 c0 -19 11 -26 23 -14 8 8 -3 34 -14 34 -5 0 -9 -9 -9 -20z"/>
<path d="M1667 2688 c-21 -12 -23 -66 -2 -74 22 -9 45 14 45 46 0 31 -18 43
-43 28z"/>
<path d="M903 2573 c-15 -5 -18 -33 -4 -33 13 0 33 28 24 33 -4 2 -14 2 -20 0z"/>
<path d="M2022 2547 c-9 -11 -10 -17 -2 -22 15 -9 23 -1 18 21 -3 15 -4 16
-16 1z"/>
<path d="M333 1913 c-16 -6 -17 -35 -1 -51 18 -18 65 -15 72 5 11 27 -39 59
-71 46z"/>
<path d="M277 1713 c-23 -22 8 -63 47 -63 25 0 39 36 20 54 -16 16 -55 22 -67
9z"/>
<path d="M2672 1503 c5 -25 28 -28 28 -4 0 12 -6 21 -16 21 -9 0 -14 -7 -12
-17z"/>
<path d="M1888 1469 c-13 -7 -18 -22 -18 -52 0 -53 11 -69 45 -69 34 0 45 16
45 69 0 32 -5 45 -19 53 -24 12 -31 12 -53 -1z"/>
<path d="M2166 1464 c-16 -16 -22 -80 -8 -100 13 -21 49 -25 66 -9 19 19 22
95 4 113 -17 17 -44 15 -62 -4z"/>
<path d="M757 1439 c-11 -39 -8 -49 14 -49 16 0 19 4 13 23 -13 44 -21 51 -27
26z"/>
<path d="M1243 1425 c-11 -33 -10 -35 12 -35 23 0 23 2 13 33 -6 17 -12 33
-13 34 -1 2 -6 -13 -12 -32z"/>
<path d="M312 1223 c-15 -6 -6 -23 14 -23 8 0 14 7 14 15 0 15 -6 17 -28 8z"/>
<path d="M415 884 c-20 -15 -20 -16 4 -12 14 2 26 9 29 16 5 16 -9 15 -33 -4z"/>
<path d="M1341 366 c-18 -22 -9 -51 17 -54 21 -3 23 0 20 29 -3 37 -19 47 -37
25z"/>
<path d="M1494 356 c-9 -24 3 -46 26 -46 17 0 21 5 18 27 -3 31 -34 44 -44 19z"/>
<path d="M1671 301 c-7 -5 -11 -19 -9 -32 4 -31 42 -33 46 -3 4 25 -19 46 -37
35z"/>
</g>
</svg>
